<?xml version="1.0" encoding="UTF-8"?>
<svg id="Camada_1" xmlns="http://www.w3.org/2000/svg" version="1.1" xmlns:xlink="http://www.w3.org/1999/xlink" viewBox="0 0 918.13 222.64">
  <!-- Generator: Adobe Illustrator 30.2.1, SVG Export Plug-In . SVG Version: 2.1.1 Build 1)  -->
  <defs>
    <style>
      .st0 {
        fill: url(#Gradiente_sem_nome_9);
      }

      .st1 {
        fill: url(#Gradiente_sem_nome_11);
      }

      .st2 {
        fill: url(#Gradiente_sem_nome_13);
      }

      .st3 {
        fill: url(#Gradiente_sem_nome_15);
      }

      .st4 {
        fill: url(#Gradiente_sem_nome_91);
      }

      .st5, .st6 {
        fill: #183a68;
      }

      .st7 {
        fill: url(#Gradiente_sem_nome_10);
      }

      .st6 {
        fill-rule: evenodd;
      }

      .st8 {
        fill: url(#Gradiente_sem_nome_14);
      }
    </style>
    <linearGradient id="Gradiente_sem_nome_15" data-name="Gradiente sem nome 15" x1="817.65" y1="129.96" x2="915" y2="129.96" gradientUnits="userSpaceOnUse">
      <stop offset="0" stop-color="#1bcfed"/>
      <stop offset=".21" stop-color="#1ab4d5"/>
      <stop offset=".65" stop-color="#19729a"/>
      <stop offset="1" stop-color="#183a68"/>
    </linearGradient>
    <linearGradient id="Gradiente_sem_nome_14" data-name="Gradiente sem nome 14" x1="768.2" y1="93.44" x2="824.27" y2="198.35" gradientUnits="userSpaceOnUse">
      <stop offset="0" stop-color="#183a68"/>
      <stop offset=".44" stop-color="#1979a0"/>
      <stop offset="1" stop-color="#1bcfed"/>
    </linearGradient>
    <linearGradient id="Gradiente_sem_nome_13" data-name="Gradiente sem nome 13" x1="720.67" y1="106.54" x2="785.01" y2="106.54" gradientUnits="userSpaceOnUse">
      <stop offset=".4" stop-color="#183a68"/>
      <stop offset=".49" stop-color="#183e6c"/>
      <stop offset=".59" stop-color="#184c78"/>
      <stop offset=".69" stop-color="#18648d"/>
      <stop offset=".81" stop-color="#1984aa"/>
      <stop offset=".92" stop-color="#1aadcf"/>
      <stop offset="1" stop-color="#1bcfed"/>
    </linearGradient>
    <linearGradient id="Gradiente_sem_nome_11" data-name="Gradiente sem nome 11" x1="799.31" y1="88.85" x2="778.28" y2="106.26" gradientUnits="userSpaceOnUse">
      <stop offset="0" stop-color="#1bcfed"/>
      <stop offset=".13" stop-color="#1aadcf"/>
      <stop offset=".32" stop-color="#1984aa"/>
      <stop offset=".51" stop-color="#18648d"/>
      <stop offset=".69" stop-color="#184c78"/>
      <stop offset=".86" stop-color="#183e6c"/>
      <stop offset="1" stop-color="#183a68"/>
    </linearGradient>
    <linearGradient id="Gradiente_sem_nome_10" data-name="Gradiente sem nome 10" x1="800" y1="190.41" x2="730.59" y2="88.67" gradientUnits="userSpaceOnUse">
      <stop offset=".23" stop-color="#183a68"/>
      <stop offset="1" stop-color="#1bcfed"/>
    </linearGradient>
    <linearGradient id="Gradiente_sem_nome_9" data-name="Gradiente sem nome 9" x1="819.5" y1="162.24" x2="881.69" y2="162.24" gradientUnits="userSpaceOnUse">
      <stop offset=".26" stop-color="#183a68"/>
      <stop offset=".37" stop-color="#183e6c"/>
      <stop offset=".49" stop-color="#184c78"/>
      <stop offset=".62" stop-color="#18648d"/>
      <stop offset=".76" stop-color="#1984aa"/>
      <stop offset=".9" stop-color="#1aadcf"/>
      <stop offset="1" stop-color="#1bcfed"/>
    </linearGradient>
    <linearGradient id="Gradiente_sem_nome_91" data-name="Gradiente sem nome 9" x1="819.6" y1="97.56" x2="881.59" y2="97.56" xlink:href="#Gradiente_sem_nome_9"/>
  </defs>
  <path class="st6" d="M409.99,139.58c0-1.32-1.08-2.4-2.41-2.4l-49.48.06-.03-17.33,28.14-.04c.99,0,1.87-.59,2.24-1.5l5.46-13.22.05-.11c.08-.25.14-.51.14-.78,0-1.32-1.09-2.39-2.42-2.39l-33.61.04-.02-17.54,49.47-.06c1.33,0,2.42-1.08,2.42-2.4l-.03-14.09c0-1.32-1.09-2.39-2.42-2.39l-63.54.08c-3.89,0-7.03,3.15-7.03,7.01l.1,77.34c.35,3.6,3.37,6.3,7.02,6.3l63.57-.09c1.33,0,2.41-1.08,2.41-2.4l-.02-14.09h0v-.02h0ZM480.28,137.1l-35.93.04-.08-69.34c0-1.33-1.1-2.41-2.42-2.41l-16.28.03c-1.33,0-2.41,1.08-2.41,2.41l.1,81.26c0,3.86,3.16,7,7.05,7l41.18-.06c2.75,0,5.1-1.62,6.19-3.92l4.83-11.66c.14-.29.2-.6.2-.93,0-1.32-1.09-2.39-2.42-2.39v-.03h0ZM216.2,67.37c0-1.22-1-2.2-2.23-2.2-.29,0-.59.05-.84.17h0l-13.81,5.67h0c-2.46,1.04-4.19,3.46-4.19,6.28l.1,76.67c0,1.33,1.09,2.41,2.42,2.4h16.28c1.33,0,2.41-1.09,2.41-2.42l-.11-86.55h-.02ZM325.61,110.86c0-1.63-.09-3.28-.24-4.88,0,0,0-.03,0-.04,0-.11-.04-.24-.05-.35v-.25h-.03c0-.19-.03-.34-.05-.53h-9.35l-32.04.05c-.96,0-1.82.55-2.2,1.39l-4.34,10.48c-.11.28-.19.59-.19.88,0,1.33,1.09,2.41,2.42,2.41l22.66-.04c-.05.17-.51,1.36-.66,1.71-4.13,9.78-13.58,16.04-24.55,16.05h-2.02c-15,0-26.77-11.75-26.78-26.81,0-8.05,2.76-14.62,8.19-19.54,5.57-5.18,12.05-7.7,19.82-7.7,6.77-.09,12.97,1.78,18.45,5.63.48.34.98.74,1.59,1.25.44.37,1,.56,1.57.56l20.08-.03c1.33,0,2.42-1.08,2.41-2.39,0-.37-.08-.72-.24-1.07-2.33-3.86-5.27-7.35-8.7-10.43-1.25-1.08-2.51-2.12-3.82-3.07-8.98-6.44-19.52-9.77-31.35-9.87h-.82c-12.97,0-25.11,4.48-34.18,12.58-9.59,8.58-14.87,20.69-14.86,34.09-.28,11.66,4.4,23,13.19,31.94,9.18,9.33,21.71,14.67,34.38,14.66.37,0,.74,0,1.12-.03h3.13c6.32,0,12.64-1.34,18.48-3.87,5.86-2.52,11.27-6.19,15.85-10.87,8.78-8.95,13.43-20.3,13.1-31.96v.02h.02v.03ZM92.36,65.82l-59.39.08c-10.5,0-19,8.49-18.99,18.91h0l.03,20.74v2.46s.05.1.1.1.09-.04.1-.09h0c.21-1.67.59-3.28,1.12-4.83,0,0,.03-.06.04-.1,3.32-9.46,12.38-16.25,23.04-16.28l44.8-.06c2.86,0,5.32-1.74,6.35-4.21l4.86-13.64c.1-.25.17-.55.17-.84,0-1.22-1-2.22-2.23-2.23h.02ZM72.53,105.13l-37.42.05v-12.74c-11.93,1.63-21.1,11.76-21.09,24.02l.05,37.72c0,1.32,1.09,2.4,2.42,2.4l16.28-.03c1.32,0,2.41-1.08,2.41-2.4l-.04-31,31.94-.04c.98,0,1.84-.58,2.22-1.48l5.46-13.2c.14-.29.2-.61.2-.94,0-1.32-1.09-2.4-2.41-2.4v.02h-.02,0ZM586.97,152.49h0l-34.22-83.16c-1.15-2.49-3.66-4.08-6.41-4.08h-9.05l-9.06.03c-2.72,0-5.24,1.6-6.39,4.09l-34.01,83.25h0c-.15.31-.21.64-.21.98,0,1.33,1.09,2.41,2.42,2.4h19.9c1.02,0,1.92-.66,2.27-1.58l6.8-17.35,36.69-.05,6.84,17.34c.35.93,1.27,1.55,2.28,1.55l19.9-.03c1.33,0,2.42-1.08,2.41-2.41,0-.31-.06-.66-.2-.96h0l.03-.02h0ZM549.54,120.56l-24.36.04h-.67l12.8-31.67,12.88,31.64h-.68.02ZM679.62,152.01l-19.25-28.3c12.83-4.05,18.78-12.9,18.77-27.85,0-10.97-3.14-18.66-9.57-23.52-6.5-4.93-16.38-7.23-31.06-7.21l-33.41.04c-3.89,0-7.05,3.15-7.03,7.01l.1,81.26c0,1.33,1.09,2.39,2.42,2.39h16.28c1.33-.02,2.41-1.09,2.41-2.42l-.03-26.72,13.97-.03,5.25-.11,18.48,28.07v.03c.46.7,1.23,1.12,2.07,1.12l18.58-.03c1.33,0,2.41-1.08,2.41-2.41,0-.49-.15-.95-.4-1.32h.02ZM639.6,110.22l-20.38.03-.04-26.06,20.39-.04c12.71,0,17.67,3.64,17.68,13.02,0,9.38-4.93,13.04-17.66,13.05h0,0ZM183.2,152.7h0l-19.28-28.36c12.83-4.04,18.8-12.89,18.77-27.85,0-10.97-3.14-18.66-9.55-23.51-6.51-4.94-16.39-7.23-31.07-7.22l-33.41.05c-3.89,0-7.03,3.14-7.03,7l.1,81.27c0,1.32,1.1,2.39,2.42,2.38h16.28c1.33,0,2.42-1.09,2.42-2.41l-.04-26.73h13.97l5.27-.15,18.48,28.09h0c.45.72,1.2,1.13,2.04,1.13l18.58-.03c1.33,0,2.42-1.08,2.42-2.4,0-.46-.14-.88-.37-1.27h0ZM143.16,110.86h-20.39l-.03-26.04,20.38-.03c12.71,0,17.68,3.62,17.68,13s-4.93,13.04-17.64,13.07h0Z"/>
  <path class="st5" d="M822.45,54.45h-5.87c-.63,1.5-1.45,3.46-1.96,4.82h-2.55l6.57-16.57h1.73l6.57,16.57h-2.52l-1.96-4.82ZM817.47,52.23h4.07l-2.01-5.77-2.06,5.77Z"/>
  <path class="st5" d="M832.36,59.26v-16.39l1.82.02,7.97,11.52v-11.52h2.34v16.36h-1.87l-7.9-11.43v11.43h-2.36Z"/>
  <path class="st5" d="M852.56,45.17c1.5-1.52,3.6-2.48,5.89-2.48s4.39.96,5.91,2.48c1.47,1.52,2.43,3.6,2.43,5.91s-.96,4.39-2.43,5.91c-1.52,1.54-3.6,2.48-5.91,2.48s-4.39-.94-5.89-2.48c-1.47-1.52-2.43-3.6-2.43-5.91s.96-4.39,2.43-5.91ZM862.68,46.85c-1.1-1.1-2.62-1.78-4.23-1.78s-3.11.68-4.18,1.78c-1.08,1.08-1.75,2.57-1.75,4.23s.68,3.16,1.75,4.23c1.08,1.1,2.57,1.78,4.18,1.78s3.13-.68,4.23-1.78c1.05-1.08,1.73-2.55,1.73-4.23s-.68-3.16-1.73-4.23Z"/>
  <path class="st5" d="M881.87,47.13c-.33-1.47-1.92-2.1-3.34-2.08-1.1.02-2.31.4-2.97,1.24-.33.42-.44.96-.4,1.52.12,1.68,1.96,1.89,3.72,2.06,2.24.28,5.03.86,5.66,3.48.07.35.12.75.12,1.08,0,3.16-3.13,4.98-6.08,4.98-2.52,0-5.59-1.5-5.89-4.42l-.02-.44,2.38-.05.02.35v-.09c.16,1.52,2.01,2.31,3.53,2.31,1.75,0,3.67-.98,3.67-2.66,0-.16-.02-.35-.07-.56-.28-1.24-1.96-1.45-3.6-1.61-2.55-.26-5.54-.82-5.8-4.23v.02c-.09-1.1.19-2.2.89-3.11,1.1-1.43,3.06-2.17,4.96-2.17,2.52,0,5.14,1.31,5.56,4.3l-2.34.09Z"/>
  <path class="st5" d="M834.16,188.19c-1.42-.53-2.82-1.1-4.2-1.73h-24.53l-3.43,1.36c-.31.12-.62.24-.94.36h33.09Z"/>
  <path class="st5" d="M788.39,30.73h104.03c1.81,0,3.28,1.47,3.28,3.28v48.24c.59.49,1.16.99,1.73,1.49v-49.73c0-2.76-2.25-5.01-5.01-5.01h-104.05c.11.57.12,1.15.02,1.73Z"/>
  <path class="st5" d="M738.51,65.33l1.24-3.06c.07-.18.15-.37.22-.55v-27.7c0-1.81,1.47-3.28,3.28-3.28h9.29c.44-.62.92-1.2,1.45-1.73h-10.73c-2.76,0-5.01,2.25-5.01,5.01v31.97c.09-.22.18-.43.26-.65Z"/>
  <path class="st5" d="M757.15,187.77c-1.02-.41-2.03-.85-3.04-1.31h-10.86c-1.81,0-3.28-1.47-3.28-3.28v-5.59c-.59-.48-1.16-.97-1.73-1.47v7.06c0,2.76,2.25,5.01,5.01,5.01h14.98c-.36-.14-.72-.28-1.08-.42Z"/>
  <path class="st5" d="M895.7,178.16v5.03c0,1.81-1.47,3.28-3.28,3.28h-9.98c-1.37.63-2.77,1.2-4.18,1.73h14.17c2.76,0,5.01-2.25,5.01-5.01v-6.52c-.57.51-1.14,1-1.73,1.49Z"/>
  <path class="st3" d="M915,129.98c0,7.56-1.51,15.4-4.83,23.21-2.58,6-6.04,11.42-10.55,16.38-4.13,4.68-8.92,8.49-14.11,11.45-.57.32-1.15.64-1.73.94,0,0-.01,0-.02.01-3.26,1.71-6.68,3.09-10.18,4.15-2.4.73-4.84,1.29-7.31,1.71-1.83.31-3.69.53-5.54.67-2.99.22-6,.22-8.98,0-1.86-.14-3.72-.36-5.56-.67-2.48-.41-4.93-.98-7.34-1.71-5.69-1.7-11.14-4.27-16.11-7.7-1.17-.8-2.3-1.65-3.41-2.54-.57-.46-1.13-.93-1.68-1.42.63-.54,1.25-1.09,1.85-1.66h0c.18.08.36.16.54.23.27.12.55.23.82.34.27.11.55.22.83.32.29.11.59.22.89.33.39.14.78.27,1.17.4.25.08.5.16.75.24.09.03.18.06.28.08.63.19,1.25.37,1.89.53,2.04.52,4.13.92,6.27,1.16.36.04.72.08,1.07.11.33.03.66.06.99.08.08,0,.16.01.25.02.31.02.62.04.93.05.36.02.73.03,1.09.04h0c.36.01.73.01,1.09.01,19.56,0,36.32-12,43.32-29.05.77-1.06,1.47-2.17,2.1-3.31.66-1.18,1.23-2.41,1.73-3.67,2.36-6.01,2.83-12.82.56-19.68h0c-.17-.56-.35-1.12-.55-1.66-.48-1.34-1.06-2.64-1.73-3.89-.65-1.23-1.39-2.41-2.19-3.54-7.05-16.92-23.75-28.8-43.22-28.8-6.68,0-13.02,1.4-18.77,3.91h0c-.14-.14-.28-.28-.43-.41-.14-.14-.29-.27-.43-.41-.29-.27-.58-.54-.87-.8.48-.41.97-.82,1.46-1.22,1.3-1.05,2.65-2.04,4.05-2.98,3.36-2.25,7.04-4.18,10.99-5.71,17.65-7.01,35.21-4.97,49.42,2.77.58.31,1.16.64,1.73.97,17.5,10.31,29.49,29.41,29.49,50.68Z"/>
  <path class="st8" d="M833.97,152c-.76,1.87-1.63,3.67-2.59,5.4h-.04c-.09.16-.18.33-.27.5-.18.32-.36.65-.54.97-.23.42-.48.83-.73,1.24-.1.18-.21.35-.32.53-.01.03-.04.07-.07.11-.04.08-.09.16-.15.24-.02.04-.05.08-.07.12-.11.18-.22.35-.34.53-.22.34-.44.68-.67,1.01-.15.23-.31.46-.47.68-.36.53-.74,1.06-1.13,1.57-.23.32-.47.63-.72.94-.22.29-.45.58-.68.86-.03.04-.07.09-.11.13-.2.25-.4.49-.61.73-.31.38-.64.76-.97,1.13-.19.22-.38.43-.58.64-.07.08-.14.15-.21.23-.14.16-.29.32-.44.48-.89.95-1.82,1.87-2.77,2.76h0c-.61.57-1.23,1.12-1.85,1.66-1.74,1.49-3.56,2.88-5.47,4.16-1.11.75-2.25,1.46-3.41,2.12-2.57,1.49-5.26,2.78-8.06,3.87,0,0,.01,0,.01.01-1.41.56-2.82,1.06-4.23,1.5-2.33.73-4.66,1.3-6.99,1.71-6.65,1.18-13.26,1.12-19.62,0-1-.18-1.99-.38-2.97-.6-1.38-.32-2.74-.68-4.08-1.1-1.49-.46-2.96-.98-4.41-1.55.32-.04.64-.09.96-.15h.05c.56-.1,1.12-.2,1.67-.31,20.38-3.92,37.06-18.22,44.32-37.2,1.35-2.04,2.48-4.23,3.34-6.51,2.4-6.36,2.77-13.51.31-20.41-1.8-19.19-12.71-35.73-28.36-45.26-2.08-1.26-4.24-2.41-6.48-3.41,1.69-.23,3.75,0,5.23-.17,4.46,0,8.91.5,13.25,1.5,1.5.35,2.98.75,4.44,1.22,4.04,1.28,7.94,3,11.61,5.11.59.33,1.17.68,1.74,1.04.76.42,1.53.9,2.31,1.43,1.68,1.14,3.38,2.51,5.05,4.01.29.26.58.53.87.8.15.13.29.27.43.41.15.13.29.27.43.41h0l.19.19c.27.26.53.52.79.78,1.47,1.48,2.88,3.02,4.18,4.56.15.17.29.34.43.51.21.26.42.51.63.77.13.17.27.34.4.5.2.25.4.5.59.76,2.06,2.68,3.67,5.21,4.56,7.17.03.06.07.12.11.19.97,1.76,1.84,3.6,2.6,5.5,5.48,13.65,5.44,30.38-.11,43.99Z"/>
  <path class="st2" d="M784.92,30.42c-1.99,5.21-3.99,10.41-6.01,15.6-.22.57-.44,1.14-.67,1.71-2.83,7.26-5.68,14.51-8.55,21.76-1.36,3.44-2.73,6.89-4.09,10.34-.64.32-1.27.65-1.9.98-.29.16-.59.32-.88.49-1.53.86-3.01,1.78-4.44,2.77-.28.19-.56.39-.84.59-.28.2-.56.4-.84.61-.28.2-.56.41-.83.63-.28.21-.55.42-.82.64-.27.21-.54.43-.81.65-.27.22-.54.44-.8.67-.26.22-.53.45-.78.68-.26.22-.52.46-.77.69-.26.23-.51.47-.76.71-.09.08-.17.16-.26.25-.21.19-.41.39-.62.6-.03.03-.06.06-.09.09-.01.01-.03.03-.04.04-.14.13-.28.28-.42.42-.52.53-1.03,1.06-1.53,1.61-.16.18-.32.35-.48.53-.8.89-1.58,1.81-2.32,2.75-.13.17-.27.34-.4.5-.13.17-.26.33-.38.5-.12.16-.24.32-.36.48-.06.08-.11.15-.17.23-.13.18-.27.36-.4.55-.43.6-.85,1.21-1.26,1.82-.13.2-.27.4-.4.6-.26.4-.52.81-.77,1.22-.13.2-.25.41-.37.62-.12.2-.24.4-.36.61-.14.24-.27.48-.41.71-.16.28-.32.57-.47.85-.16.29-.32.59-.47.89-.48.92-.93,1.84-1.35,2.79-.14.3-.27.6-.4.9-.15.35-.3.69-.44,1.04-.12.3-.25.6-.36.91-.38.96-.73,1.94-1.06,2.92-.11.33-.22.66-.32.99,0,0,0,0,0,0-.1.33-.2.66-.3.99-.08.26-.15.53-.23.8-.03.11-.06.22-.09.34-.17.63-.33,1.26-.48,1.9-.08.33-.16.66-.23.99,0,.01,0,.02,0,.04-.07.31-.13.61-.2.93-.08.41-.16.82-.23,1.24-.06.32-.11.64-.16.95-.05.31-.1.63-.15.95-.11.77-.21,1.55-.3,2.34-.06.59-.12,1.17-.16,1.77-.01.13-.02.26-.03.39-.02.32-.04.64-.06.96-.02.32-.03.63-.04.95,0,.19-.01.39-.02.58-.01.22-.01.44-.02.66,0,.36-.01.72-.01,1.07,0,.3,0,.6,0,.89,0,.16,0,.31.01.46,0,.25.01.5.02.74,0,.29.02.57.03.86.03.7.08,1.41.14,2.11.02.31.05.62.08.93.03.3.06.6.1.9,0,.03,0,.06.01.09.03.29.07.58.11.87.05.38.1.75.16,1.13.04.3.09.6.15.9.04.27.09.53.14.8.03.18.07.37.1.55.04.2.08.39.11.59.07.32.13.63.2.95.06.26.11.52.18.78.1.42.2.84.3,1.25.04.17.09.34.13.51.11.4.22.8.33,1.2.08.27.16.55.24.82.07.22.14.45.21.67.06.18.11.36.17.54.15.46.3.92.47,1.37.1.28.2.56.3.84.07.19.14.38.21.56.08.23.17.46.27.68.18.45.37.9.56,1.35.09.22.19.45.29.67.1.22.2.45.3.67.1.22.2.44.3.66.1.22.21.44.31.66.1.22.21.44.32.65.21.43.44.86.67,1.29.11.21.22.42.35.64.11.21.23.42.35.64.12.21.23.42.36.63.36.63.74,1.25,1.12,1.86.13.2.26.41.39.61.22.35.46.7.69,1.05.17.25.34.5.52.75.13.2.27.39.42.59.14.2.28.39.42.58.14.19.28.39.43.58.13.17.26.34.39.51.6.78,1.23,1.55,1.87,2.3.14.17.28.33.43.49.65.74,1.31,1.46,1.99,2.17.15.16.3.31.46.47.18.19.37.37.55.55.22.22.44.43.66.64.13.13.27.26.41.39.19.18.37.35.56.52.03.03.07.06.1.09.01.01.02.02.03.03.29.27.58.53.87.78.11.1.22.19.34.29.23.2.46.4.7.59.13.11.26.22.4.33.26.22.53.43.79.64.11.09.22.18.34.27.25.19.49.38.75.57.11.09.22.17.34.25.25.19.5.37.76.56.25.18.51.36.76.54.54.38,1.08.75,1.64,1.11.21.14.43.28.65.41.29.18.58.36.87.54-.55.11-1.11.21-1.67.3h-.05c-.32.06-.64.11-.96.16-2.24-.89-4.42-1.92-6.54-3.07-.58-.31-1.16-.64-1.73-.98-17.64-10.36-29.99-29.54-29.47-51.58.05-2.25.24-4.53.57-6.83,1.74-9.12,11.75-34.02,20.45-55.48,5.5-13.58,10.48-25.78,12.49-31.75,1.51-3.84,5.21-6.37,9.34-6.37h20.07c.99,0,1.67.99,1.31,1.92Z"/>
  <path class="st1" d="M809.08,119.99c-.04-.13-.09-.25-.13-.38-.06-.16-.11-.31-.17-.47-1.53-4.06-3.99-7.65-7.06-10.64-2.33-2.26-5-4.18-7.89-5.69-9.61-5.02-21.58-5.56-30.89.62-.83.32-3.31,3.05-3.26.82,2.17-5.46,7.04-17.96,10.36-26.4.94-2.38,1.75-4.44,2.34-5.93.5-.33,1.15-.51,1.87-.61,2.24,1.01,4.4,2.15,6.48,3.42,15.65,9.53,26.56,26.07,28.36,45.26Z"/>
  <path class="st7" d="M805.43,146.91c-7.26,18.97-23.94,33.28-44.32,37.2-3.3-2.01-6.38-4.33-9.22-6.92-.59-.54-1.16-1.08-1.73-1.64-10.92-10.79-17.68-25.78-17.68-42.35s6.76-31.55,17.68-42.34c.56-.56,1.14-1.11,1.73-1.64,4.09-3.74,8.7-6.91,13.71-9.4-4.59,11.59-9.18,23.17-13.71,34.78-.03.08-.07.16-.1.25-.64,1.3-1.18,2.61-1.63,3.93-2.44,7.14-2.28,14.61,0,21.25.48,1.41,1.06,2.77,1.73,4.09,4.53,8.95,13.2,15.7,24.61,16.79,0,0,0,0,0,0,6.18.73,12.03-.56,17.1-3.24,2.94-1.55,5.61-3.57,7.92-5.94,1.45-1.49,2.76-3.11,3.9-4.84Z"/>
  <path class="st0" d="M881.69,147.72c-6.99,17.04-23.75,29.05-43.32,29.05-6.72,0-13.1-1.41-18.87-3.96,4.61-4.29,8.52-9.32,11.55-14.9.09-.17.18-.34.27-.5h.04c.97-1.73,1.83-3.54,2.59-5.4,2.2,2.28,4.76,4.23,7.65,5.7.76.4,1.55.75,2.36,1.08,14.04,6.49,29.52.3,37.71-11.06Z"/>
  <path class="st4" d="M881.59,111.96c-4.02-5.61-9.88-9.88-16.54-11.82-7.47-2.38-15.88-1.42-23.02,2.17-2.92,1.47-5.62,3.38-7.96,5.69-.76-1.9-1.63-3.73-2.6-5.49-.03-.07-.07-.13-.11-.19-1.78-3.93-6.46-10.11-11.77-15.25,5.75-2.52,12.1-3.92,18.77-3.92,19.47,0,36.17,11.89,43.22,28.81Z"/>
</svg>