<svg width="226" height="51" viewBox="0 0 226 51" fill="none" xmlns="http://www.w3.org/2000/svg">
<path fill-rule="evenodd" clip-rule="evenodd" d="M145.209 30.4893C145.209 27.5777 149.638 27.1947 152.279 27.1947H153.211V27.731C153.211 30.2594 151.269 33.1709 148.472 33.1709C146.297 33.1709 145.209 31.8684 145.209 30.4893ZM139.926 30.7191C139.926 34.9331 143.344 37.2317 147.074 37.2317C151.968 37.2317 153.6 33.554 153.6 33.554H153.678C153.678 33.554 153.6 34.2436 153.6 35.0097V36.772H158.417V23.6702C158.417 18.3835 155.154 15.3188 149.638 15.3188C144.587 15.3188 141.246 17.9238 141.246 17.9238L143.267 21.6781C143.267 21.6781 146.064 19.6094 149.094 19.6094C151.424 19.6094 153.211 20.6055 153.211 23.3637V23.5936H152.512C149.016 23.5936 139.926 24.0533 139.926 30.7191ZM103.72 36.772H109.003V27.5777C109.003 26.6583 109.003 25.6623 109.236 24.8961C109.858 22.2145 111.645 20.0691 114.442 20.0691C116.928 20.0691 117.317 22.0612 117.317 24.2831V36.772H122.6V27.5777C122.6 26.5817 122.6 25.6623 122.833 24.8961C123.454 22.2145 125.241 20.0691 127.961 20.0691C130.447 20.0691 130.835 21.908 130.835 24.2831V36.772H136.196V23.2871C136.196 17.7706 133.632 15.3188 129.204 15.3188C125.863 15.3188 123.144 17.3875 121.978 19.6094H121.901C120.968 16.8512 118.948 15.3188 115.685 15.3188C112.344 15.3188 109.78 17.6173 108.77 19.686H108.692C108.692 19.686 108.77 18.9965 108.77 18.2303V15.8551H103.72V36.772ZM79.0908 30.2594C79.0908 36.2356 82.7424 37.0018 85.6948 37.0018C86.5494 37.0018 87.3264 36.8486 87.3264 36.8486V32.3281C87.3264 32.3281 86.9379 32.3281 86.5494 32.3281C85.1509 32.3281 84.374 31.7918 84.374 29.4932V7.58032H79.0908V30.2594ZM91.9104 34.0137C91.9104 35.9292 92.765 36.772 94.7074 36.772H99.7575V32.4047H98.1259C97.5044 32.4047 97.1936 32.0216 97.1936 31.4853V18.6134C97.1936 16.6979 96.339 15.8551 94.3966 15.8551H89.3464V20.299H91.0557C91.5996 20.299 91.9104 20.5288 91.9104 21.1418V34.0137ZM92.2211 12.4073H96.8051V7.58032H92.2211V12.4073ZM48.246 21.908C48.246 30.5659 54.3838 37.2317 63.3964 37.2317C71.0105 37.2317 75.3614 32.2515 75.3614 32.2515L72.4867 28.4206C72.4867 28.4206 69.0681 32.2515 63.4741 32.2515C58.1132 32.2515 53.9177 27.6544 53.9177 21.908C53.9177 15.8551 58.0355 12.1008 63.3187 12.1008C65.9604 12.1008 69.4566 13.0968 69.4566 15.2422V16.9278H74.4291V13.6332C74.4291 8.65298 66.9704 7.12061 63.241 7.12061C54.6169 7.12061 48.246 13.5566 48.246 21.908Z" fill="#FEFEFE"/>
<path fill-rule="evenodd" clip-rule="evenodd" d="M207.675 26.2755C207.675 22.4446 210.55 19.7629 213.969 19.7629C217.387 19.7629 220.262 22.4446 220.262 26.2755C220.262 30.183 217.387 32.8647 213.969 32.8647C210.55 32.8647 207.675 30.183 207.675 26.2755ZM202.315 26.2755C202.315 32.7114 207.442 37.2319 213.969 37.2319C220.417 37.2319 225.623 32.7114 225.623 26.2755C225.623 19.9161 220.417 15.319 213.969 15.319C207.442 15.319 202.315 19.9161 202.315 26.2755ZM192.136 34.0139C192.136 35.9294 192.991 36.7722 194.934 36.7722H199.984V32.405H198.352C197.731 32.405 197.42 32.0219 197.42 31.4855V18.6136C197.42 16.6982 196.565 15.8554 194.623 15.8554H189.573V20.2992H191.282C191.826 20.2992 192.136 20.5291 192.136 21.142V34.0139ZM192.447 12.4075H196.954V7.58057H192.447V12.4075ZM171.781 21.2953V12.1777H176.209C178.851 12.1777 180.482 13.7867 180.482 16.6982C180.482 19.6097 178.851 21.2953 176.131 21.2953H171.781ZM166.342 36.7722H171.781V25.8924H174.578C176.054 25.8924 176.675 26.1222 177.375 27.2715L181.104 34.6269C182.114 36.4657 183.046 36.7722 185.222 36.7722H188.096V32.1751H187.553C186.698 32.1751 185.921 32.0985 185.532 31.2557L182.658 25.6625C182.114 24.5899 181.182 24.1302 181.182 24.1302V24.0535C182.425 23.8237 186.076 21.6784 186.076 16.3917C186.076 10.8752 182.269 7.58057 176.908 7.58057H163.623V12.1777H166.342V36.7722Z" fill="#38BBC5"/>
<path fill-rule="evenodd" clip-rule="evenodd" d="M19.7321 1.987C18.4112 5.43483 21.0529 9.57223 25.7145 11.3345L25.8699 11.4111L26.103 11.4877C30.687 13.0967 35.6595 11.6409 36.9803 8.1931C37.1357 7.65677 37.2134 7.12044 37.2911 6.50749C35.7372 8.95929 31.697 10.1086 27.1907 8.57619L26.9577 8.49958L26.7246 8.42296C22.296 6.66073 20.1205 3.28952 20.5867 0.53125C20.1982 0.990961 19.9651 1.45067 19.7321 1.987ZM10.9526 5.05174C8.69942 11.2578 13.6719 18.3834 21.9852 21.6013C30.3762 24.5128 38.9226 22.3675 41.3312 16.238C41.7197 15.1654 41.9527 14.0927 41.9527 13.0201C40.0104 17.847 32.474 20.6053 23.5391 17.5406C14.7596 14.0927 10.9526 7.12044 12.6618 2.21686C11.9626 3.05966 11.341 3.97908 10.9526 5.05174ZM4.34852 11.1046C1.24073 18.9963 7.22322 28.5736 17.6343 32.4812L17.8674 32.5578L18.1005 32.711C28.5116 36.4653 39.3888 33.0175 42.3412 25.1258C42.9628 23.5168 43.1958 21.8312 43.0405 20.1456C40.2435 27.5776 29.9878 30.7956 20.1205 27.1945C20.0428 27.1945 19.9651 27.1179 19.8874 27.1179C19.8098 27.1179 19.7321 27.0413 19.6544 27.0413C9.86484 23.3636 4.27082 14.3226 7.06783 6.89059C5.90241 8.11648 4.97007 9.49562 4.34852 11.1046ZM8.9325 39.3002C10.5641 40.3729 12.3511 41.2157 14.2934 41.9819C16.2358 42.6714 18.1782 43.1311 20.1205 43.4376C30.4539 44.7401 40.1658 37.9211 42.1858 27.9607C41.9527 28.497 41.642 29.2632 41.3312 29.7995C36.6695 37.8445 25.9476 40.8326 16.0804 37.2315C6.21319 33.5538 0.0753106 24.3596 2.01768 15.3186C2.09537 14.7057 2.32846 13.9395 2.56154 13.3265C-2.56631 22.1377 0.2307 33.6304 8.9325 39.3002Z" fill="url(#paint0_linear_4378_2550)"/>
<path fill-rule="evenodd" clip-rule="evenodd" d="M12.9727 42.2883C14.6819 43.0545 16.5466 43.5142 18.4113 43.7441C20.276 43.9739 22.1406 43.8973 24.083 43.5142C23.4614 43.5142 22.6845 43.4376 22.0629 43.361C20.9752 43.2077 19.8875 42.9779 18.8774 42.6714C17.0128 42.0584 15.3812 41.139 13.8273 39.9131C9.08792 36.2354 5.98014 29.9527 5.82475 22.9804C5.59166 12.4837 11.8849 3.3661 21.1306 1.60388C21.7522 1.52726 22.5291 1.45064 23.1507 1.37402C22.7622 1.37402 22.4514 1.37402 22.1406 1.37402C-2.02241 1.37402 -8.23799 33.0941 12.9727 42.2883ZM25.87 2.21683C17.4013 2.37006 10.6418 11.4877 10.7972 22.5973V22.8272V23.0571C10.9526 28.2671 12.5842 32.9408 15.2258 36.3887C16.4689 38.0743 17.9451 39.53 19.6544 40.6027C21.8298 41.9052 24.2384 42.6714 26.8023 42.5948C27.2685 42.5182 27.6569 42.5182 28.1231 42.4415C29.3662 42.2883 30.5316 41.9052 31.6971 41.3689C30.6093 41.3689 29.5993 41.2156 28.667 40.9858C25.87 40.2962 23.306 38.6106 21.286 36.1588C19.8098 34.32 18.5667 32.098 17.7897 29.5696C17.1682 27.5009 16.702 25.279 16.702 22.9038C16.6243 22.8272 16.6243 22.7506 16.6243 22.674C16.6243 22.5973 16.6243 22.5207 16.6243 22.3675C16.5466 13.4031 21.2083 5.8179 27.5793 3.67258C28.5893 3.3661 29.677 3.13625 30.8424 3.13625C29.9878 2.75316 29.0554 2.5233 28.1231 2.37006C27.5016 2.21683 26.8023 2.21683 26.1807 2.21683C26.1031 2.21683 25.9477 2.21683 25.87 2.21683ZM33.9502 6.04775C33.484 6.04775 33.0956 6.12437 32.7071 6.20099C26.7246 7.27365 22.5291 14.1693 22.5291 22.4441V22.5207C22.6845 24.9725 23.1507 27.2711 23.9276 29.3398C25.2484 32.8642 27.4239 35.6225 30.1432 37.1549C31.5417 37.8444 33.0179 38.3041 34.6495 38.2275C35.8149 38.2275 36.9026 37.9977 37.9903 37.6146C35.5818 37.6146 33.1733 36.3887 31.2309 34.1667C28.8224 31.5617 27.1908 27.5009 26.9577 22.3675C26.9577 21.9844 26.9577 21.6013 26.9577 21.2948C27.1908 16.0848 28.9778 11.9474 31.464 9.41897C33.1733 7.65674 35.1933 6.58408 37.2911 6.50746C36.2811 6.20099 35.3487 6.04775 34.3387 6.04775C34.1833 6.04775 34.0279 6.04775 33.9502 6.04775ZM40.2435 12.7136C39.9327 12.7136 39.6219 12.7902 39.3111 12.7902C36.048 13.4797 33.484 17.4639 33.5617 21.9844V22.3675C33.5617 23.7466 33.8725 24.9725 34.261 26.1218C35.4264 29.1099 37.7573 31.102 40.4766 31.0254C41.0204 31.0254 41.5643 30.8721 42.1082 30.6423C39.3111 30.1826 36.9026 27.0412 36.5918 22.3675C36.5918 22.1376 36.5918 21.9844 36.5918 21.8312C36.5918 20.9117 36.7472 20.0689 36.9026 19.2261C37.1357 18.0769 37.5242 17.0042 38.068 16.1614C39.0781 14.4758 40.3989 13.3265 41.8751 12.9434C41.4089 12.7902 40.865 12.7136 40.3212 12.7136H40.2435Z" fill="url(#paint1_linear_4378_2550)"/>
<path fill-rule="evenodd" clip-rule="evenodd" d="M196.565 46.962C196.565 45.9659 198.119 45.8893 198.896 45.8893H199.207V46.1192C199.207 46.962 198.585 47.8814 197.653 47.8814C196.954 47.8814 196.565 47.4217 196.565 46.962ZM195.477 47.0386C195.477 48.1879 196.41 48.8008 197.42 48.8008C198.818 48.8008 199.284 47.6515 199.284 47.6515C199.284 47.6515 199.284 47.8048 199.284 48.1112V48.6476H200.294V45.0465C200.294 43.5907 199.44 42.8246 198.041 42.8246C196.721 42.8246 195.866 43.5141 195.866 43.5141L196.332 44.2803C196.332 44.2803 197.031 43.744 197.964 43.744C198.663 43.744 199.207 44.0505 199.207 44.9699V45.1231H198.896C197.964 45.1231 195.477 45.1997 195.477 47.0386ZM185.61 48.6476H186.698V46.0425C186.698 45.8127 186.698 45.5062 186.776 45.2764C186.931 44.5102 187.553 43.8206 188.407 43.8206C189.262 43.8206 189.417 44.5102 189.417 45.2764V48.6476H190.505V46.0425C190.505 45.7361 190.505 45.5062 190.583 45.2764C190.738 44.5102 191.36 43.8206 192.214 43.8206C193.069 43.8206 193.224 44.4335 193.224 45.2764V48.6476H194.312V45.0465C194.312 43.5907 193.69 42.8246 192.37 42.8246C191.515 42.8246 190.66 43.4375 190.35 44.1271C190.116 43.2843 189.573 42.8246 188.64 42.8246C187.708 42.8246 186.931 43.5141 186.62 44.1271C186.62 44.1271 186.62 43.9738 186.62 43.744V42.9778H185.61V48.6476ZM182.735 48.6476H183.823V42.9778H182.735V48.6476ZM182.735 41.8285H183.823V40.7559H182.735V41.8285ZM179.705 47.1152C179.705 48.4943 180.638 48.6476 181.259 48.6476C181.415 48.6476 181.57 48.6476 181.57 48.6476V47.7281C181.57 47.7281 181.492 47.7281 181.415 47.7281C181.026 47.7281 180.793 47.5749 180.793 46.8853V40.7559H179.705V47.1152ZM173.179 45.8127C173.179 47.4983 174.422 48.8008 176.209 48.8008C177.685 48.8008 178.54 47.8814 178.54 47.8814L178.074 47.0386C178.074 47.0386 177.375 47.8048 176.287 47.8048C175.121 47.8048 174.267 46.962 174.267 45.8127C174.267 44.6634 175.121 43.744 176.287 43.744C177.219 43.744 177.841 44.4335 177.841 44.4335L178.385 43.6674C178.385 43.6674 177.685 42.8246 176.209 42.8246C174.422 42.8246 173.179 44.1271 173.179 45.8127ZM166.42 48.6476H167.507V46.349C167.507 45.9659 167.507 45.6594 167.663 45.2764C167.896 44.4335 168.517 43.9738 169.217 43.9738C169.372 43.9738 169.527 43.9738 169.527 43.9738V42.9012C169.527 42.9012 169.45 42.9012 169.294 42.9012C168.362 42.9012 167.74 43.5907 167.43 44.3569C167.43 44.3569 167.43 44.2037 167.43 43.9738V42.9778H166.42V48.6476ZM160.049 45.8127C160.049 44.5868 160.903 43.744 161.991 43.744C163.079 43.744 163.933 44.5868 163.933 45.8127C163.933 46.962 163.079 47.8048 161.991 47.8048C160.903 47.8048 160.049 46.962 160.049 45.8127ZM158.883 45.8127C158.883 47.4983 160.282 48.8008 161.991 48.8008C163.7 48.8008 165.099 47.4983 165.099 45.8127C165.099 44.0505 163.7 42.8246 161.991 42.8246C160.282 42.8246 158.883 44.0505 158.883 45.8127ZM152.512 48.6476H153.6V45.9659C153.6 45.7361 153.6 45.4296 153.678 45.1997C153.911 44.4335 154.61 43.8206 155.465 43.8206C156.397 43.8206 156.552 44.4335 156.552 45.2764V48.6476H157.718V45.0465C157.718 43.5907 157.019 42.8246 155.698 42.8246C154.532 42.8246 153.833 43.5907 153.6 44.1271C153.6 44.1271 153.6 43.8972 153.6 43.6674V40.7559H152.512V48.6476ZM149.404 47.1152C149.404 48.4943 150.337 48.6476 150.958 48.6476C151.114 48.6476 151.347 48.6476 151.347 48.6476V47.7281C151.347 47.7281 151.191 47.7281 151.114 47.7281C150.803 47.7281 150.492 47.5749 150.492 46.8853V40.7559H149.404V47.1152ZM143.966 45.1231C144.121 44.2037 144.82 43.6674 145.675 43.6674C146.374 43.6674 146.996 44.2037 146.996 45.1231H143.966ZM142.8 45.8127C142.8 47.4983 144.044 48.8008 145.831 48.8008C147.229 48.8008 148.084 47.958 148.084 47.958L147.617 47.1918C147.617 47.1918 146.918 47.8048 145.908 47.8048C144.898 47.8048 143.966 47.1918 143.966 45.9659H148.084C148.084 45.9659 148.161 45.6594 148.161 45.5062C148.161 44.0505 147.307 42.8246 145.675 42.8246C144.044 42.8246 142.8 43.9738 142.8 45.8127ZM132.856 48.6476H133.943V46.0425C133.943 45.8127 133.943 45.5062 134.021 45.2764C134.254 44.5102 134.798 43.8206 135.653 43.8206C136.507 43.8206 136.663 44.5102 136.663 45.2764V48.6476H137.75V46.0425C137.75 45.7361 137.75 45.5062 137.828 45.2764C138.061 44.5102 138.605 43.8206 139.46 43.8206C140.314 43.8206 140.47 44.4335 140.47 45.2764V48.6476H141.557V45.0465C141.557 43.5907 140.936 42.8246 139.693 42.8246C138.76 42.8246 137.906 43.4375 137.595 44.1271C137.439 43.2843 136.818 42.8246 135.886 42.8246C134.953 42.8246 134.176 43.5141 133.866 44.1271C133.866 44.1271 133.866 43.9738 133.866 43.744V42.9778H132.856V48.6476ZM123.532 45.8127C123.532 44.5868 124.464 43.744 125.552 43.744C126.64 43.744 127.495 44.5868 127.495 45.8127C127.495 46.962 126.64 47.8048 125.552 47.8048C124.464 47.8048 123.532 46.962 123.532 45.8127ZM122.444 45.8127C122.444 47.4983 123.843 48.8008 125.552 48.8008C127.261 48.8008 128.582 47.4983 128.582 45.8127C128.582 44.0505 127.261 42.8246 125.552 42.8246C123.843 42.8246 122.444 44.0505 122.444 45.8127ZM114.442 45.1231C114.597 44.2037 115.219 43.6674 116.073 43.6674C116.85 43.6674 117.472 44.2037 117.472 45.1231H114.442ZM113.276 45.8127C113.276 47.4983 114.52 48.8008 116.307 48.8008C117.627 48.8008 118.482 47.958 118.482 47.958L118.016 47.1918C118.016 47.1918 117.317 47.8048 116.384 47.8048C115.297 47.8048 114.442 47.1918 114.364 45.9659H118.56C118.56 45.9659 118.637 45.6594 118.637 45.5062C118.637 44.0505 117.705 42.8246 116.151 42.8246C114.52 42.8246 113.276 43.9738 113.276 45.8127ZM109.392 48.6476H110.557V46.349C110.557 45.9659 110.557 45.6594 110.635 45.2764C110.946 44.4335 111.567 43.9738 112.266 43.9738C112.422 43.9738 112.577 43.9738 112.577 43.9738V42.9012C112.577 42.9012 112.422 42.9012 112.344 42.9012C111.412 42.9012 110.79 43.5907 110.479 44.3569C110.479 44.3569 110.479 44.2037 110.479 43.9738V42.9778H109.392V48.6476ZM103.72 45.8127C103.72 44.3569 104.497 43.8206 105.352 43.8206C106.284 43.8206 106.983 44.5868 106.983 45.8127C106.983 47.1152 106.206 47.8048 105.352 47.8048C104.264 47.8048 103.72 46.8087 103.72 45.8127ZM102.632 50.8695H103.72V48.3411C103.72 48.0346 103.72 47.8048 103.72 47.8048C103.72 47.8048 104.264 48.8008 105.507 48.8008C106.983 48.8008 108.071 47.5749 108.071 45.8127C108.071 44.0505 107.139 42.8246 105.585 42.8246C104.108 42.8246 103.642 43.8972 103.642 43.8972C103.642 43.8972 103.642 43.6674 103.642 43.4375V42.9778H102.632V50.8695ZM92.2989 48.6476H93.3866V46.0425C93.3866 45.8127 93.3866 45.5062 93.4643 45.2764C93.6197 44.5102 94.2413 43.8206 95.0959 43.8206C95.9505 43.8206 96.1059 44.5102 96.1059 45.2764V48.6476H97.1937V46.0425C97.1937 45.7361 97.1937 45.5062 97.2714 45.2764C97.4268 44.5102 98.0483 43.8206 98.9029 43.8206C99.7576 43.8206 99.913 44.4335 99.913 45.2764V48.6476H101.001V45.0465C101.001 43.5907 100.379 42.8246 99.0583 42.8246C98.126 42.8246 97.3491 43.4375 97.0383 44.1271C96.8052 43.2843 96.2613 42.8246 95.329 42.8246C94.3967 42.8246 93.6197 43.5141 93.3089 44.1271C93.3089 44.1271 93.3089 43.9738 93.3089 43.744V42.9778H92.2989V48.6476ZM86.7826 45.1231C86.938 44.2037 87.5595 43.6674 88.4142 43.6674C89.1911 43.6674 89.8127 44.2037 89.8127 45.1231H86.7826ZM85.6172 45.8127C85.6172 47.4983 86.7826 48.8008 88.6473 48.8008C89.9681 48.8008 90.8227 47.958 90.8227 47.958L90.3565 47.1918C90.3565 47.1918 89.6573 47.8048 88.7249 47.8048C87.6372 47.8048 86.7826 47.1918 86.7049 45.9659H90.9004C90.9004 45.9659 90.9004 45.6594 90.9004 45.5062C90.9004 44.0505 90.0458 42.8246 88.4142 42.8246C86.7826 42.8246 85.6172 43.9738 85.6172 45.8127ZM80.4116 47.958C80.4116 47.958 81.1886 48.8008 82.5871 48.8008C83.9079 48.8008 84.6848 48.0346 84.6848 47.1152C84.6848 45.2764 81.7324 45.5062 81.7324 44.5102C81.7324 43.9738 82.1986 43.744 82.6648 43.744C83.5971 43.744 84.0633 44.2803 84.0633 44.2803L84.5294 43.4375C84.5294 43.4375 83.9856 42.8246 82.6648 42.8246C81.577 42.8246 80.6447 43.4375 80.6447 44.4335C80.6447 46.2724 83.5971 46.1192 83.5971 47.1152C83.5971 47.5749 83.0532 47.8048 82.5871 47.8048C81.577 47.8048 80.9555 47.1918 80.9555 47.1918L80.4116 47.958Z" fill="#FEFEFE"/>
<defs>
<linearGradient id="paint0_linear_4378_2550" x1="15.2258" y1="16.1614" x2="40.1679" y2="33.8037" gradientUnits="userSpaceOnUse">
<stop stop-color="#7BCDF3"/>
<stop offset="1" stop-color="#CCE7D4"/>
</linearGradient>
<linearGradient id="paint1_linear_4378_2550" x1="20.3536" y1="16.3146" x2="39.9087" y2="40.8693" gradientUnits="userSpaceOnUse">
<stop stop-color="#0087CB"/>
<stop offset="0.380392" stop-color="#41B1C6"/>
<stop offset="0.690196" stop-color="#3CC1CC"/>
<stop offset="1" stop-color="#0C9B94"/>
</linearGradient>
</defs>
</svg>
