<?xml version="1.0" encoding="UTF-8"?>
<svg xmlns="http://www.w3.org/2000/svg" xmlns:xlink="http://www.w3.org/1999/xlink" width="449pt" height="213.3pt" viewBox="0 0 449 213.3" version="1.1">
<g id="surface1">
<path style=" stroke:none;fill-rule:evenodd;fill:rgb(65.429688%,6.272888%,6.272888%);fill-opacity:1;" d="M 158.996094 17.164063 C 158.996094 21.921875 162.910156 27.765625 164.625 27.765625 L 215.949219 27.765625 L 215.949219 42.011719 L 146.410156 42.011719 C 141.046875 42.011719 134.613281 44.339844 131.757813 46.894531 C 122.417969 55.269531 125.304688 69.964844 132.246094 77.050781 C 142.925781 87.953125 166.835938 88.507813 174.375 98.179688 C 180.921875 106.578125 168.832031 108.621094 162.308594 108.597656 L 101.710938 108.597656 C 98.375 113.582031 98.375 119.429688 100.804688 124.742188 L 101.710938 126.816406 L 172.574219 126.820313 C 178.976563 126.859375 187.042969 125.183594 192.585938 122.988281 C 196.101563 121.597656 199.484375 119.097656 201.054688 115.558594 C 203.460938 110.128906 204.164063 99.59375 201.84375 92.890625 C 201.378906 91.550781 200.8125 90.449219 200.160156 89.277344 C 199.34375 87.808594 198.878906 87.195313 197.882813 85.925781 C 185.023438 69.503906 146.421875 74.007813 154.28125 61.148438 C 154.714844 60.445313 155.476563 58.90625 156.347656 58.90625 L 215.949219 58.90625 L 215.949219 126.816406 L 245.75 126.816406 L 245.75 27.765625 L 307.339844 27.765625 C 308.515625 27.765625 310.1875 24.953125 310.800781 23.941406 C 313.160156 20.046875 313.171875 16.222656 311.207031 12.300781 C 309.960938 9.808594 308.53125 8.296875 308.332031 7.558594 L 163.628906 7.558594 C 162.089844 9.855469 158.996094 13.199219 158.996094 17.164063 Z M 158.996094 17.164063 "/>
<path style=" stroke:none;fill-rule:evenodd;fill:rgb(65.429688%,6.272888%,6.272888%);fill-opacity:1;" d="M 301.378906 80.769531 L 286.808594 80.769531 L 286.808594 54.265625 L 302.703125 54.265625 C 303.898438 54.265625 305.699219 57.886719 306.167969 59.085938 C 309.046875 66.429688 307.367188 71.449219 303.800781 77.894531 C 303.363281 78.6875 302.292969 80.769531 301.378906 80.769531 Z M 258 43.671875 L 258 61.222656 C 258 62.472656 261.25 64.992188 263.113281 65.714844 C 264.078125 66.089844 264.953125 66.09375 264.953125 67.1875 L 264.953125 126.816406 L 285.484375 126.816406 C 286.246094 126.816406 286.476563 126.589844 286.476563 125.824219 L 286.476563 88.390625 L 298.730469 88.390625 C 299.894531 88.390625 306 96.398438 307.253906 97.753906 L 315.53125 107.6875 C 319.886719 112.585938 324.992188 119.261719 329.277344 124.085938 C 331.035156 126.054688 330.703125 126.730469 332.808594 126.84375 C 340.359375 127.242188 349.300781 126.816406 357.007813 126.816406 C 356.683594 125.605469 354.214844 123.003906 352.894531 121.324219 C 352.40625 120.707031 352.292969 120.644531 351.792969 120.109375 L 337.140625 102.632813 C 334.75 99.546875 322.050781 85.191406 321.578125 83.421875 C 322.59375 81.902344 324.054688 80.933594 325.300781 79.523438 C 345.429688 56.730469 318.613281 42.671875 318.597656 42.671875 L 258.996094 42.671875 C 258.230469 42.671875 258 42.902344 258 43.671875 Z M 258 43.671875 "/>
<path style=" stroke:none;fill-rule:evenodd;fill:rgb(65.429688%,6.272888%,6.272888%);fill-opacity:1;" d="M 33.828125 135.097656 L 33.828125 140.070313 L 424.886719 140.070313 L 424.886719 134.105469 L 34.824219 134.105469 C 34.058594 134.105469 33.828125 134.339844 33.828125 135.097656 Z M 33.828125 135.097656 "/>
<path style=" stroke:none;fill-rule:evenodd;fill:rgb(65.429688%,6.272888%,6.272888%);fill-opacity:1;" d="M 77.867188 172.535156 L 77.867188 196.71875 C 77.867188 204.71875 83.109375 210.628906 90.121094 210.628906 C 96.101563 210.628906 100.226563 211.066406 105.21875 207.183594 C 110.648438 202.964844 109.65625 196.292969 109.65625 189.761719 L 98.066406 189.761719 C 98.066406 192.589844 98.097656 195.941406 97.5 198.46875 C 96.414063 203.050781 89.457031 203.003906 89.457031 197.046875 C 89.457031 192.722656 88.9375 172.007813 90.152344 169.253906 C 91.054688 167.207031 97.933594 164.246094 97.726563 174.53125 C 97.652344 178.007813 96.667969 177.171875 108.664063 177.171875 C 110.046875 177.171875 109.65625 176.019531 109.65625 173.195313 C 109.65625 163.640625 104.570313 158.289063 95.085938 158.289063 L 92.109375 158.289063 C 83.242188 158.289063 77.867188 163.648438 77.867188 172.535156 Z M 77.867188 172.535156 "/>
<path style=" stroke:none;fill-rule:evenodd;fill:rgb(65.429688%,6.272888%,6.272888%);fill-opacity:1;" d="M 17.933594 169.550781 L 20.914063 190.753906 L 14.625 190.753906 C 14.625 188.992188 15.109375 187.359375 15.3125 185.480469 L 16.941406 174.855469 C 17.066406 173.675781 17.128906 173.40625 17.316406 172.246094 Z M 0.0546875 209.636719 C 11.820313 209.636719 11.671875 210.605469 12.09375 207.769531 L 13.300781 199.703125 L 22.238281 199.703125 C 22.496094 202.78125 23.632813 206.457031 23.894531 209.636719 L 35.816406 209.636719 C 35.777344 207.820313 34.90625 204.832031 34.574219 203.261719 L 26.347656 165.113281 C 25.816406 162.613281 25.453125 159.28125 24.226563 159.28125 L 11.644531 159.28125 C 10.273438 159.28125 10.289063 161.890625 9.589844 164.84375 L 4.117188 190.179688 C 3.820313 191.664063 3.605469 192.003906 3.363281 193.402344 C 3.132813 194.726563 2.941406 195.359375 2.632813 196.648438 Z M 0.0546875 209.636719 "/>
<path style=" stroke:none;fill-rule:evenodd;fill:rgb(65.429688%,6.272888%,6.272888%);fill-opacity:1;" d="M 195.417969 202.015625 C 193.632813 202.015625 192.4375 200.378906 192.4375 198.707031 L 192.4375 183.132813 C 192.4375 179.230469 198.398438 177.503906 198.398438 185.121094 L 198.398438 197.046875 C 198.398438 199.320313 197.511719 202.015625 195.417969 202.015625 Z M 198.398438 175.183594 C 197.222656 174.328125 197.808594 173.839844 195.292969 172.332031 C 188.152344 168.042969 181.511719 173.609375 181.511719 183.464844 C 181.511719 189.363281 180.710938 201.933594 183.417969 206.402344 C 186.609375 211.675781 193.566406 212.613281 198.304688 206.5625 C 198.59375 206.195313 198.816406 205.941406 199.0625 205.664063 C 199.0625 210.539063 197.429688 209.636719 208.332031 209.636719 C 209.09375 209.636719 209.324219 209.40625 209.324219 208.644531 L 209.324219 160.277344 C 209.324219 159.511719 209.09375 159.28125 208.332031 159.28125 C 196.28125 159.28125 198.398438 157.433594 198.398438 166.570313 C 198.398438 169.441406 198.398438 172.3125 198.398438 175.183594 Z M 198.398438 175.183594 "/>
<path style=" stroke:none;fill-rule:evenodd;fill:rgb(65.429688%,6.272888%,6.272888%);fill-opacity:1;" d="M 395.75 194.066406 C 395.75 190.371094 394.859375 179.820313 398.730469 179.820313 C 403.222656 179.820313 402.039063 190.503906 402.039063 195.722656 C 402.039063 204.480469 396.707031 202.714844 396.15625 199.292969 C 395.867188 197.511719 395.75 195.976563 395.75 194.066406 Z M 402.039063 175.183594 C 401.046875 174.519531 398.761719 170.878906 394.425781 170.878906 C 391.382813 170.878906 388.972656 172.464844 387.597656 174.316406 C 386.382813 175.945313 385.152344 179.703125 385.152344 182.472656 L 385.152344 198.378906 C 385.152344 204.171875 387.878906 210.628906 393.429688 210.628906 C 399.285156 210.628906 399.710938 209.101563 402.703125 205.664063 C 402.703125 210.539063 401.070313 209.636719 411.976563 209.636719 C 412.738281 209.636719 412.96875 209.40625 412.96875 208.644531 L 412.96875 160.277344 C 412.96875 159.511719 412.738281 159.28125 411.976563 159.28125 C 399.921875 159.28125 402.039063 157.433594 402.039063 166.570313 C 402.039063 169.441406 402.039063 172.3125 402.039063 175.183594 Z M 402.039063 175.183594 "/>
<path style=" stroke:none;fill-rule:evenodd;fill:rgb(65.429688%,6.272888%,6.272888%);fill-opacity:1;" d="M 365.617188 202.679688 C 361.644531 202.679688 361.644531 200.945313 361.644531 197.714844 C 361.644531 194.421875 367.800781 191.867188 369.257813 191.746094 C 369.257813 196.039063 369.683594 202.679688 365.617188 202.679688 Z M 352.039063 184.128906 C 365.460938 184.128906 360.789063 184.769531 362.433594 180.28125 C 362.972656 178.816406 364.371094 178.164063 365.617188 178.164063 C 369.09375 178.164063 370.089844 182.484375 368.304688 184.503906 C 368.230469 184.589844 366.976563 185.507813 366.777344 185.617188 C 360.339844 189.128906 350.714844 187.121094 350.714844 201.355469 C 350.714844 206.359375 354.699219 210.628906 358.996094 210.628906 C 367.511719 210.628906 365.40625 209.128906 369.589844 206.324219 C 369.699219 207.636719 370.144531 208.324219 370.253906 209.636719 L 380.519531 209.636719 C 380.519531 207.796875 380.3125 208.289063 379.992188 206.847656 L 379.855469 183.464844 C 379.878906 174.027344 375.949219 170.878906 365.617188 170.878906 C 357.292969 170.878906 352.347656 174.007813 351.160156 181.628906 C 350.96875 182.851563 350.671875 184.128906 352.039063 184.128906 Z M 352.039063 184.128906 "/>
<path style=" stroke:none;fill-rule:evenodd;fill:rgb(65.429688%,6.272888%,6.272888%);fill-opacity:1;" d="M 158.664063 176.175781 L 158.664063 172.207031 L 148.730469 172.207031 L 148.730469 209.636719 C 160.984375 209.636719 159.730469 210.5 159.667969 206.667969 L 159.65625 185.785156 C 159.65625 182.671875 159.050781 179.820313 162.304688 179.820313 C 164.28125 179.820313 164.953125 181.160156 164.953125 183.132813 L 164.953125 209.636719 L 174.890625 209.636719 C 175.652344 209.636719 175.882813 209.40625 175.882813 208.644531 C 175.882813 203.28125 176.492188 179.710938 175.234375 176.160156 C 173.496094 171.261719 164.519531 168.277344 160.121094 174.328125 C 159.472656 175.21875 159.46875 175.589844 158.664063 176.175781 Z M 158.664063 176.175781 "/>
<path style=" stroke:none;fill-rule:evenodd;fill:rgb(65.429688%,6.272888%,6.272888%);fill-opacity:1;" d="M 329.191406 176.175781 L 329.191406 172.207031 L 318.929688 172.207031 L 318.929688 208.644531 C 318.929688 209.40625 319.160156 209.636719 319.921875 209.636719 L 329.855469 209.636719 L 329.855469 182.472656 C 329.855469 180.675781 331.078125 179.820313 332.835938 179.820313 C 335.660156 179.820313 335.15625 182.96875 335.152344 185.785156 L 335.148438 206.332031 C 335.089844 210.539063 333.625 209.636719 346.082031 209.636719 L 346.082031 179.160156 C 346.082031 177.800781 345.804688 176.589844 345.324219 175.609375 C 343.484375 171.878906 336.996094 169.0625 332.160156 172.519531 C 331.09375 173.285156 330.414063 174.214844 329.6875 175.347656 L 329.195313 176.175781 Z M 329.191406 176.175781 "/>
<path style=" stroke:none;fill-rule:evenodd;fill:rgb(65.429688%,6.272888%,6.272888%);fill-opacity:1;" d="M 299.0625 203.011719 C 297.425781 203.011719 296.082031 201.667969 296.082031 200.03125 L 296.082031 182.140625 C 296.082031 178.007813 302.371094 177.144531 302.371094 182.804688 L 302.371094 199.367188 C 302.371094 201.652344 301.308594 203.011719 299.0625 203.011719 Z M 285.152344 184.128906 L 285.152344 198.707031 C 285.152344 202.152344 286.449219 205.488281 288.203125 207.25 C 292.265625 211.308594 305.082031 212.714844 310.402344 206.738281 C 314.285156 202.382813 313.300781 192.832031 313.300781 186.117188 C 313.300781 176.113281 309.242188 170.878906 299.390625 170.878906 C 290.273438 170.878906 285.152344 174.980469 285.152344 184.128906 Z M 285.152344 184.128906 "/>
<path style=" stroke:none;fill-rule:evenodd;fill:rgb(65.429688%,6.272888%,6.272888%);fill-opacity:1;" d="M 429.191406 198.378906 L 429.191406 184.128906 C 429.191406 176.464844 435.484375 177.859375 435.484375 182.472656 L 435.484375 200.03125 C 435.484375 203.777344 429.191406 205.0625 429.191406 198.378906 Z M 418.597656 182.140625 L 418.597656 200.691406 C 418.597656 202.105469 419.199219 203.769531 419.765625 204.824219 C 424.300781 213.234375 439.820313 211.539063 443.496094 207.050781 C 445.28125 204.867188 446.410156 201.933594 446.410156 198.042969 C 446.410156 183.777344 449 170.878906 432.171875 170.878906 C 424.898438 170.878906 418.597656 174.589844 418.597656 182.140625 Z M 418.597656 182.140625 "/>
<path style=" stroke:none;fill-rule:evenodd;fill:rgb(65.429688%,6.272888%,6.272888%);fill-opacity:1;" d="M 128.863281 203.011719 C 127.261719 203.011719 125.882813 202.070313 125.882813 200.359375 L 125.882813 181.808594 C 125.882813 178.339844 132.171875 176.636719 132.171875 183.464844 L 132.171875 199.035156 C 132.171875 201.378906 131.21875 203.011719 128.863281 203.011719 Z M 114.953125 183.132813 L 114.953125 199.703125 C 114.953125 206.394531 120.695313 210.628906 126.542969 210.628906 C 131.3125 210.628906 135.742188 211.070313 139.554688 207.417969 C 141.464844 205.582031 142.769531 202.652344 142.769531 199.035156 L 142.769531 182.804688 C 142.769531 168.796875 124.914063 169.015625 118.871094 173.800781 C 116.632813 175.570313 114.953125 179.191406 114.953125 183.132813 Z M 114.953125 183.132813 "/>
<path style=" stroke:none;fill-rule:evenodd;fill:rgb(65.429688%,6.272888%,6.272888%);fill-opacity:1;" d="M 233.828125 184.464844 L 233.828125 199.035156 C 233.828125 202.292969 235.066406 205.75 236.726563 207.398438 C 241.15625 211.800781 254.890625 212.445313 259.390625 206.054688 C 261.339844 203.285156 261.644531 197.835938 261.644531 194.398438 L 251.046875 194.398438 C 251.046875 196.914063 251.78125 203.011719 248.066406 203.011719 C 246.25 203.011719 244.757813 201.863281 244.757813 200.03125 L 244.757813 181.808594 C 244.757813 178.140625 249.84375 177.679688 250.601563 181.261719 C 250.75 181.96875 251.046875 185.492188 251.046875 186.117188 L 260.320313 186.117188 C 262.847656 186.117188 260.664063 176.6875 257.757813 174.101563 C 253.171875 170.023438 241.449219 169.664063 237.042969 174.09375 C 234.800781 176.34375 233.828125 180.085938 233.828125 184.464844 Z M 233.828125 184.464844 "/>
<path style=" stroke:none;fill-rule:evenodd;fill:rgb(65.429688%,6.272888%,6.272888%);fill-opacity:1;" d="M 49.0625 177.503906 L 49.0625 172.207031 L 39.128906 172.207031 L 39.128906 209.636719 C 52.3125 209.636719 50.054688 211.480469 50.054688 202.679688 L 50.039063 186.761719 C 49.988281 181.457031 53.910156 183.058594 57.339844 183.132813 L 57.339844 170.878906 C 52.269531 170.992188 50.871094 174.082031 49.300781 177.082031 Z M 49.0625 177.503906 "/>
<path style=" stroke:none;fill-rule:evenodd;fill:rgb(65.429688%,6.272888%,6.272888%);fill-opacity:1;" d="M 215.949219 173.195313 L 215.949219 208.644531 C 215.949219 209.40625 216.179688 209.636719 216.941406 209.636719 L 226.875 209.636719 L 226.875 172.207031 L 216.941406 172.207031 C 216.179688 172.207031 215.949219 172.433594 215.949219 173.195313 Z M 215.949219 173.195313 "/>
<path style=" stroke:none;fill-rule:evenodd;fill:rgb(65.429688%,6.272888%,6.272888%);fill-opacity:1;" d="M 267.933594 209.640625 L 278.53125 209.640625 L 278.53125 172.203125 L 267.933594 172.203125 Z M 267.933594 209.640625 "/>
<path style=" stroke:none;fill-rule:evenodd;fill:rgb(65.429688%,6.272888%,6.272888%);fill-opacity:1;" d="M 376.875 58.242188 L 374.226563 58.242188 C 368.117188 58.242188 361.972656 52.097656 361.972656 45.984375 C 361.972656 41.351563 362.230469 38.921875 365.695313 35.464844 C 366.871094 34.296875 367.472656 33.671875 369.027344 32.839844 C 376.273438 28.949219 388.796875 32.597656 388.796875 45.652344 C 388.796875 52.0625 382.371094 58.242188 376.875 58.242188 Z M 359.324219 43.003906 C 359.324219 48.847656 359.695313 51.820313 364.210938 56.339844 C 365.679688 57.808594 366.335938 58.476563 368.449219 59.382813 C 375.066406 62.222656 381.714844 61.214844 386.898438 56.011719 C 397.402344 45.46875 388.214844 28.757813 376.542969 28.757813 C 372.941406 28.757813 372.035156 28.726563 368.449219 30.265625 C 364.019531 32.171875 359.324219 38.253906 359.324219 43.003906 Z M 359.324219 43.003906 "/>
<path style=" stroke:none;fill-rule:evenodd;fill:rgb(65.429688%,6.272888%,6.272888%);fill-opacity:1;" d="M 215.949219 160.277344 C 215.949219 165.046875 215.214844 168.558594 216.941406 168.558594 L 226.875 168.558594 L 226.875 160.277344 C 226.875 159.511719 226.644531 159.28125 225.882813 159.28125 L 216.941406 159.28125 C 216.179688 159.28125 215.949219 159.511719 215.949219 160.277344 Z M 215.949219 160.277344 "/>
<path style=" stroke:none;fill-rule:evenodd;fill:rgb(65.429688%,6.272888%,6.272888%);fill-opacity:1;" d="M 376.542969 44.328125 L 371.246094 44.328125 L 371.246094 39.691406 L 377.207031 39.691406 C 378.417969 39.691406 379.855469 40.605469 379.855469 41.679688 C 379.855469 43.652344 378.519531 44.328125 376.542969 44.328125 Z M 368.929688 38.699219 L 368.929688 52.609375 L 371.246094 52.609375 L 371.246094 46.316406 C 375.828125 46.316406 375.742188 45.863281 377.964844 48.871094 C 378.984375 50.253906 379.71875 51.097656 380.519531 52.609375 L 383.496094 52.609375 C 381.875 50.1875 380.394531 47.890625 378.199219 45.984375 C 384.117188 44.605469 382.449219 39.351563 379.878906 38.34375 C 377.84375 37.546875 372.425781 37.703125 369.921875 37.703125 C 369.160156 37.703125 368.929688 37.933594 368.929688 38.699219 Z M 368.929688 38.699219 "/>
<path style=" stroke:none;fill-rule:evenodd;fill:rgb(65.429688%,6.272888%,6.272888%);fill-opacity:1;" d="M 267.933594 168.558594 L 278.53125 168.558594 L 278.53125 159.28125 L 267.933594 159.28125 Z M 267.933594 168.558594 "/>
<path style=" stroke:none;fill-rule:evenodd;fill:rgb(65.429688%,6.272888%,6.272888%);fill-opacity:1;" d="M 326.875 0.269531 C 328.183594 0.269531 328.21875 0.378906 329.191406 0.601563 L 329.191406 -0.0625 L 326.875 -0.0625 Z M 326.875 0.269531 "/>
</g>
</svg>
